<?xml version="1.0" encoding="UTF-8" standalone="no"?>
<!DOCTYPE svg PUBLIC "-//W3C//DTD SVG 20010904//EN"
              "http://www.w3.org/TR/2001/REC-SVG-20010904/DTD/svg10.dtd">

<svg xmlns="http://www.w3.org/2000/svg"
     width="42.44in" height="35.88in"
     viewBox="0 0 4244 3588">
  <path id="Skull Path"
        fill="none" stroke="black" stroke-width="1"
        d="M 3046.00,1430.00
           C 3046.00,1430.00 2540.00,1552.00 2540.00,1552.00
             2540.00,1552.00 1974.00,1676.00 1974.00,1676.00
             1974.00,1676.00 1438.00,1772.00 1438.00,1772.00
             1438.00,1772.00 1237.50,1804.00 1237.50,1804.00
             1237.50,1804.00 1011.98,1833.71 1012.00,1837.00
             1012.24,1875.32 1013.49,1948.63 1014.29,1985.36
             1015.09,2022.08 1011.72,2051.85 1014.83,2072.20
             1017.93,2092.56 1027.87,2105.51 1043.65,2116.48
             1059.44,2127.44 1082.05,2137.23 1099.25,2144.55
             1116.45,2151.86 1125.17,2155.47 1117.89,2188.90
             1110.60,2222.33 1097.91,2247.87 1076.38,2287.28
             1054.85,2326.68 1043.95,2343.00 1034.40,2356.35
             1024.85,2369.70 1018.34,2377.55 1018.34,2381.52
             1018.34,2385.50 1024.67,2385.30 1036.23,2387.57
             1047.80,2389.84 1064.13,2394.54 1085.53,2403.16
             1106.94,2411.78 1133.40,2424.36 1159.72,2440.62
             1186.04,2456.88 1213.30,2477.52 1213.96,2498.84
             1214.62,2520.16 1188.97,2542.38 1166.89,2558.20
             1144.80,2574.02 1126.28,2583.42 1112.78,2589.27
             1099.27,2595.11 1090.79,2597.40 1087.81,2600.24
             1084.84,2603.09 1087.37,2606.49 1092.59,2612.82
             1097.79,2619.15 1105.65,2628.41 1111.61,2640.55
             1117.57,2652.69 1121.63,2667.73 1123.55,2684.71
             1125.46,2701.69 1125.25,2719.84 1126.24,2735.26
             1127.24,2750.69 1127.94,2754.17 1129.29,2768.03
             1130.64,2781.89 1130.48,2783.88 1135.53,2785.02
             1137.91,2785.55 1140.99,2785.00 1145.05,2783.85
             1145.04,2783.82 1145.02,2783.82 1145.00,2783.79
             1145.00,2783.79 1155.34,2780.45 1155.34,2780.45
             1158.18,2779.46 1160.11,2778.85 1163.79,2777.56
             1179.60,2772.00 1196.24,2766.75 1205.82,2763.50
             1210.21,2762.01 1216.78,2759.13 1222.23,2757.02
             1222.23,2756.95 1222.23,2756.92 1222.23,2756.86
             1222.23,2756.86 1278.95,2731.67 1278.95,2731.67
             1279.08,2731.87 1279.20,2732.02 1279.32,2732.20
             1282.45,2730.80 1284.66,2729.72 1287.98,2728.27
             1305.76,2720.52 1317.85,2716.04 1330.97,2711.53
             1344.08,2707.02 1358.87,2702.28 1379.39,2694.93
             1384.39,2693.13 1388.71,2691.30 1393.48,2689.53
             1393.48,2689.52 1393.49,2689.51 1393.48,2689.50
             1393.48,2689.50 1461.91,2662.36 1461.91,2662.36
             1461.95,2662.46 1462.00,2662.56 1462.04,2662.65
             1453.95,2666.01 1445.55,2669.39 1437.19,2672.80
             1422.73,2678.69 1408.28,2684.06 1393.48,2689.54
             1395.79,2698.30 1398.10,2707.06 1399.24,2711.44
             1400.41,2715.82 1400.41,2715.82 1401.21,2718.12
             1402.03,2720.41 1403.70,2724.99 1406.45,2731.55
             1409.20,2738.10 1413.03,2746.65 1417.29,2752.70
             1421.54,2758.75 1426.21,2762.30 1432.37,2764.21
             1438.52,2766.12 1446.18,2766.40 1452.89,2765.46
             1459.60,2764.51 1465.36,2762.39 1470.80,2760.05
             1476.23,2757.71 1481.33,2755.17 1485.24,2752.67
             1489.15,2750.16 1491.89,2747.67 1494.38,2744.66
             1496.87,2741.64 1499.12,2738.08 1498.99,2734.51
             1498.87,2730.94 1496.37,2727.33 1493.57,2722.49
             1490.83,2717.62 1487.83,2711.48 1485.63,2706.15
             1483.41,2700.82 1482.01,2696.30 1479.60,2692.57
             1477.19,2688.84 1473.78,2685.91 1470.66,2681.01
             1467.60,2676.19 1464.80,2669.44 1462.04,2662.67
             1472.46,2658.35 1482.62,2654.04 1494.05,2649.61
             1497.71,2648.19 1502.81,2646.51 1506.67,2645.07
             1504.90,2657.97 1503.16,2670.84 1504.10,2681.29
             1505.06,2691.90 1508.77,2700.02 1512.87,2706.36
             1516.97,2712.71 1521.44,2717.28 1524.92,2720.39
             1528.41,2723.50 1530.90,2725.15 1534.69,2726.02
             1538.49,2726.89 1543.58,2727.00 1550.39,2723.30
             1557.20,2719.62 1565.73,2712.16 1572.68,2708.83
             1579.62,2705.50 1584.95,2706.28 1591.12,2705.83
             1597.29,2705.37 1604.28,2703.63 1609.08,2698.80
             1613.87,2693.97 1616.47,2686.05 1613.74,2671.42
             1611.00,2656.79 1602.93,2635.48 1594.86,2614.15
             1594.86,2614.15 1539.62,2633.17 1539.62,2633.17
             1539.28,2633.30 1538.96,2633.43 1538.61,2633.54
             1538.61,2633.54 1537.59,2633.89 1537.59,2633.89
             1526.91,2637.67 1516.11,2641.51 1506.67,2645.05
             1506.69,2644.86 1506.71,2644.70 1506.73,2644.52
             1506.73,2644.52 1537.59,2633.89 1537.59,2633.89
             1537.94,2633.76 1538.26,2633.64 1538.61,2633.53
             1538.61,2633.53 1539.62,2633.17 1539.62,2633.17
             1547.91,2630.22 1554.79,2627.58 1564.01,2624.38
             1590.44,2615.21 1620.10,2605.07 1642.67,2598.19
             1665.23,2591.32 1680.69,2587.73 1696.16,2584.14
             1750.82,2568.00 1815.01,2549.04 1841.07,2541.26
             1867.12,2533.47 1875.81,2530.70 1878.87,2526.64
             1881.92,2522.57 1879.28,2518.94 1873.92,2510.01
             1868.57,2501.09 1861.55,2488.52 1856.17,2478.98
             1850.78,2469.45 1847.87,2464.48 1842.05,2463.27
             1836.23,2462.07 1827.84,2464.93 1812.61,2469.42
             1797.39,2473.95 1776.37,2479.81 1756.02,2483.76
             1735.66,2487.72 1720.32,2488.85 1693.65,2490.16
             1666.98,2491.46 1626.53,2493.03 1588.91,2495.34
             1551.29,2497.64 1515.26,2500.75 1494.47,2494.52
             1473.67,2488.29 1468.12,2472.73 1466.49,2455.58
             1464.85,2438.43 1467.14,2419.70 1471.81,2403.78
             1476.49,2387.86 1483.56,2374.75 1489.41,2365.70
             1495.25,2356.65 1499.87,2351.66 1504.74,2346.59
             1509.60,2341.53 1514.70,2336.41 1515.90,2337.23
             1517.11,2338.06 1514.45,2344.82 1510.56,2353.24
             1506.67,2361.66 1501.55,2371.74 1496.90,2382.87
             1492.24,2394.00 1488.05,2406.18 1485.56,2416.35
             1483.07,2426.53 1482.28,2434.71 1485.58,2444.85
             1488.88,2455.00 1496.26,2467.13 1507.48,2473.22
             1518.71,2479.32 1533.78,2479.38 1555.14,2479.57
             1576.49,2479.76 1604.13,2480.06 1633.78,2478.07
             1663.43,2476.06 1695.10,2471.78 1725.14,2465.71
             1755.18,2459.63 1783.60,2451.78 1813.01,2440.74
             1842.41,2429.70 1872.82,2415.48 1895.76,2401.16
             1918.70,2386.84 1934.19,2372.40 1948.24,2350.68
             1962.30,2328.95 1974.93,2299.93 1985.51,2278.87
             1996.09,2257.80 2004.61,2244.69 2013.82,2235.14
             2023.03,2225.60 2032.92,2219.62 2045.08,2213.94
             2057.24,2208.26 2071.67,2202.86 2085.99,2200.18
             2100.31,2197.51 2114.51,2197.54 2141.38,2202.05
             2168.25,2206.55 2207.78,2215.52 2231.88,2219.09
             2255.98,2222.65 2264.64,2220.81 2271.97,2217.39
             2279.31,2213.97 2285.33,2208.97 2290.77,2203.65
             2296.21,2198.32 2301.08,2192.66 2304.33,2186.41
             2307.58,2180.15 2309.21,2173.30 2312.57,2165.14
             2315.93,2156.98 2321.02,2147.51 2327.55,2139.58
             2334.09,2131.66 2342.07,2125.28 2348.72,2119.78
             2355.38,2114.28 2360.70,2109.68 2364.83,2103.81
             2368.96,2097.94 2371.90,2090.81 2374.80,2084.57
             2377.71,2078.33 2380.56,2073.00 2382.93,2075.32
             2385.30,2077.65 2387.19,2087.62 2384.16,2096.83
             2381.13,2106.03 2369.97,2117.86 2372.79,2120.65
             2375.61,2123.43 2400.02,2124.68 2416.01,2127.96
             2432.01,2131.23 2446.61,2136.89 2455.61,2145.08
             2464.61,2153.27 2468.03,2164.01 2468.33,2177.38
             2468.62,2190.75 2465.79,2206.74 2462.55,2217.19
             2459.31,2227.64 2455.65,2232.54 2451.27,2235.56
             2446.88,2238.58 2441.78,2239.73 2436.94,2239.78
             2432.10,2239.84 2427.53,2238.81 2428.40,2234.68
             2429.27,2230.55 2435.57,2223.33 2440.53,2215.11
             2445.49,2206.88 2449.11,2197.66 2450.42,2188.01
             2451.73,2178.36 2450.74,2168.29 2447.34,2160.42
             2443.95,2152.55 2438.17,2146.87 2430.49,2143.18
             2422.82,2139.49 2413.27,2137.79 2404.76,2136.47
             2396.25,2135.15 2388.78,2134.22 2381.31,2133.30
             2381.31,2133.30 2353.15,2134.94 2353.15,2134.94
             2353.15,2134.94 2348.77,2135.19 2348.77,2135.19
             2344.71,2140.38 2342.48,2143.21 2337.62,2154.22
             2332.76,2165.22 2330.73,2172.94 2327.25,2180.70
             2323.77,2188.46 2318.86,2196.26 2312.49,2203.30
             2306.11,2210.35 2298.26,2216.63 2290.53,2221.63
             2282.80,2226.62 2275.18,2230.33 2269.13,2238.37
             2263.08,2246.41 2258.60,2258.79 2252.17,2269.35
             2245.73,2279.90 2237.35,2288.63 2227.88,2296.28
             2218.42,2303.93 2207.87,2310.49 2191.50,2316.64
             2175.13,2322.78 2152.94,2328.50 2130.28,2330.94
             2107.63,2333.39 2084.53,2332.57 2066.63,2330.44
             2048.73,2328.31 2036.02,2324.86 2024.11,2323.62
             2012.19,2322.37 2001.07,2323.33 1993.18,2329.36
             1985.29,2335.40 1980.65,2346.52 1972.84,2359.31
             1965.03,2372.10 1954.05,2386.55 1943.13,2398.10
             1932.21,2409.66 1921.35,2418.33 1910.08,2425.82
             1898.80,2433.32 1886.99,2439.72 1879.63,2443.94
             1872.27,2448.16 1869.03,2450.39 1869.28,2454.67
             1869.51,2458.95 1873.21,2465.08 1879.38,2477.17
             1885.62,2489.25 1894.59,2507.60 1902.80,2521.48
             1911.01,2535.36 1919.97,2547.30 1928.55,2558.71
             1932.20,2565.18 1935.85,2571.67 1937.17,2580.80
             1938.50,2589.93 1937.48,2601.71 1934.04,2611.68
             1930.60,2621.65 1924.74,2629.80 1917.85,2638.65
             1910.96,2647.49 1903.04,2657.03 1886.77,2666.15
             1885.57,2666.82 1883.78,2667.49 1882.50,2668.16
             1882.52,2668.26 1882.54,2668.35 1882.56,2668.49
             1882.56,2668.49 1792.03,2718.40 1792.03,2718.40
             1791.73,2718.03 1791.49,2717.76 1791.19,2717.40
             1786.22,2721.00 1781.22,2724.69 1776.32,2727.96
             1769.79,2732.31 1762.94,2736.11 1755.82,2739.85
             1755.84,2740.04 1755.87,2740.19 1755.90,2740.37
             1755.90,2740.37 1752.82,2741.57 1752.82,2741.57
             1744.06,2746.00 1734.55,2750.23 1723.54,2754.58
             1707.30,2760.99 1687.47,2767.95 1668.45,2774.91
             1662.32,2777.16 1656.62,2779.19 1650.69,2781.48
             1643.30,2784.33 1637.09,2787.09 1630.12,2789.97
             1630.12,2790.16 1630.12,2790.29 1630.12,2790.47
             1630.12,2790.47 1604.60,2800.51 1604.60,2800.51
             1597.60,2803.47 1589.96,2806.61 1583.01,2809.43
             1565.44,2816.54 1548.85,2822.99 1533.31,2829.60
             1533.31,2829.60 1457.87,2866.78 1457.87,2866.78
             1457.63,2866.45 1457.37,2866.10 1457.13,2865.79
             1450.93,2868.26 1444.90,2870.98 1438.67,2873.52
             1439.08,2873.87 1439.32,2874.19 1439.72,2874.54
             1439.72,2874.54 1393.87,2898.56 1393.87,2898.56
             1393.38,2898.33 1392.91,2898.10 1392.42,2897.87
             1389.35,2899.92 1386.23,2901.96 1383.10,2904.00
             1375.16,2909.17 1368.76,2912.62 1361.79,2915.93
             1361.79,2915.93 1361.89,2916.06 1361.89,2916.06
             1361.89,2916.06 1360.41,2916.57 1360.41,2916.57
             1357.38,2917.98 1354.68,2919.36 1350.96,2920.87
             1337.99,2926.14 1323.74,2930.81 1312.38,2934.30
             1301.02,2937.78 1290.93,2940.61 1285.76,2944.99
             1280.59,2949.36 1282.91,2953.09 1286.48,2958.25
             1290.04,2963.40 1294.76,2969.88 1302.46,2982.65
             1310.15,2995.42 1301.14,3016.27 1304.00,3026.00
             1306.86,3035.73 1343.34,3012.94 1340.00,3024.00
             1337.53,3032.17 1384.00,3022.00 1384.00,3022.00
             1384.00,3022.00 1451.76,3009.02 1456.00,3010.00
             1472.21,3013.76 1528.67,3002.10 1546.00,3000.00
             1563.33,2997.89 1662.60,2982.39 1676.00,2974.00
             1689.40,2965.61 1726.00,2958.00 1782.00,2940.00
             1844.00,2924.00 1884.51,2912.37 1936.00,2888.00
             1987.49,2863.63 1999.73,2854.32 2044.00,2840.00
             2088.27,2825.68 2126.13,2804.65 2166.00,2790.00
             2205.87,2775.34 2256.00,2754.00 2288.00,2732.00
             2332.00,2718.00 2331.93,2733.66 2343.70,2704.56
             2355.46,2675.47 2359.82,2643.30 2358.38,2617.38
             2356.92,2591.47 2349.68,2571.80 2345.78,2537.38
             2341.88,2502.96 2341.34,2453.79 2345.84,2413.45
             2350.33,2373.12 2359.84,2341.61 2371.34,2317.63
             2382.84,2293.64 2398.27,2274.80 2407.94,2266.71
             2417.61,2258.62 2427.73,2255.92 2436.50,2254.53
             2445.28,2253.15 2453.01,2252.89 2457.29,2256.51
             2461.57,2260.13 2464.98,2270.52 2465.23,2288.54
             2465.49,2306.57 2463.10,2334.02 2461.90,2354.70
             2460.70,2375.39 2460.66,2389.42 2470.31,2397.70
             2479.95,2405.97 2499.29,2408.50 2519.26,2407.04
             2539.23,2405.59 2559.84,2400.15 2582.29,2393.03
             2604.74,2385.90 2629.06,2377.10 2656.91,2361.18
             2684.76,2345.27 2716.16,2322.26 2772.60,2288.24
             2829.05,2254.23 2910.55,2209.21 2999.02,2163.48
             3087.49,2117.75 3182.93,2071.31 3264.59,2027.03
             3336.00,1952.00 3368.93,1910.44 3414.00,1874.00
             3459.07,1837.56 3472.00,1814.00 3518.00,1776.00
             3525.23,1761.01 3566.00,1740.00 3566.00,1740.00
             3566.00,1740.00 3570.43,1718.39 3572.55,1699.19
             3576.38,1664.38 3574.08,1630.87 3567.72,1593.55
             3561.36,1556.24 3550.94,1515.12 3533.52,1474.72
             3516.10,1434.33 3470.39,1367.97 3440.00,1326.00
             3435.36,1319.59 3046.00,1430.00 3046.00,1430.00 Z
           M 1392.42,2897.88
           C 1400.93,2892.21 1409.67,2886.51 1421.93,2880.54
             1427.34,2877.91 1433.02,2875.84 1438.67,2873.53
             1432.18,2868.00 1425.65,2862.48 1421.78,2857.37
             1417.69,2851.94 1416.35,2846.97 1413.44,2841.70
             1410.51,2836.43 1405.97,2830.87 1401.66,2825.84
             1397.34,2820.81 1393.25,2816.32 1388.89,2813.68
             1384.53,2811.04 1379.89,2810.28 1374.43,2810.05
             1368.96,2809.83 1362.66,2810.18 1356.70,2810.31
             1350.74,2810.47 1345.12,2810.37 1340.37,2812.31
             1335.62,2814.25 1331.73,2818.22 1327.89,2822.27
             1324.04,2826.31 1320.24,2830.44 1317.57,2834.28
             1314.89,2838.11 1313.34,2841.65 1317.88,2848.44
             1322.43,2855.23 1333.08,2865.29 1346.76,2874.19
             1360.04,2882.82 1376.20,2890.36 1392.42,2897.87
             1392.42,2897.87 1392.42,2897.88 1392.42,2897.88 Z
           M 1457.13,2865.79
           C 1462.63,2863.60 1468.25,2861.33 1473.49,2858.95
             1490.01,2851.44 1503.62,2842.73 1521.43,2834.43
             1524.86,2832.83 1529.60,2831.18 1533.31,2829.60
             1533.31,2829.60 1535.76,2828.40 1535.76,2828.40
             1531.70,2821.13 1527.63,2813.85 1523.48,2806.79
             1519.32,2799.74 1515.09,2792.90 1511.16,2787.26
             1507.22,2781.62 1503.58,2777.18 1500.06,2773.50
             1496.54,2769.81 1493.13,2766.86 1487.62,2766.57
             1482.12,2766.25 1474.51,2768.57 1467.87,2770.12
             1461.22,2771.63 1455.52,2772.37 1449.14,2772.53
             1442.77,2772.69 1435.71,2772.24 1430.17,2772.85
             1424.62,2773.45 1420.59,2775.07 1418.20,2777.43
             1415.80,2779.80 1415.04,2782.90 1413.02,2786.58
             1411.01,2790.26 1407.74,2794.50 1405.67,2798.77
             1403.59,2803.04 1402.71,2807.33 1408.93,2815.06
             1415.15,2822.79 1428.46,2833.97 1437.81,2843.16
             1446.74,2851.95 1452.00,2858.90 1457.13,2865.80
             1457.13,2865.80 1457.13,2865.79 1457.13,2865.79 Z
           M 1604.60,2800.52
           C 1612.88,2797.02 1621.47,2793.55 1630.12,2789.98
             1630.31,2778.40 1630.51,2766.84 1629.95,2759.68
             1629.38,2752.41 1628.04,2749.62 1626.24,2745.07
             1624.43,2740.52 1622.13,2734.20 1618.86,2730.09
             1615.59,2726.00 1611.35,2724.12 1605.95,2722.17
             1600.54,2720.22 1593.98,2718.19 1587.37,2718.32
             1580.77,2718.45 1574.12,2720.74 1568.78,2723.68
             1563.44,2726.62 1559.41,2730.23 1557.20,2733.69
             1554.98,2737.15 1554.59,2740.47 1551.27,2741.22
             1547.96,2741.98 1541.72,2740.17 1536.51,2740.27
             1531.29,2740.37 1527.08,2742.33 1523.74,2744.35
             1520.40,2746.37 1517.93,2748.43 1515.32,2751.21
             1512.71,2754.00 1509.96,2757.52 1516.93,2768.97
             1523.91,2780.42 1540.60,2799.78 1557.30,2819.16
             1557.30,2819.16 1604.60,2800.52 1604.60,2800.52 Z
           M 1621.14,2793.56
           C 1621.14,2793.56 1705.51,2760.21 1705.51,2760.21
             1706.58,2759.67 1707.47,2759.02 1708.51,2758.48
             1706.10,2742.49 1703.71,2726.54 1700.62,2716.52
             1697.50,2706.39 1693.68,2702.29 1689.64,2698.01
             1685.59,2693.73 1681.32,2689.27 1676.02,2688.02
             1670.72,2686.77 1664.40,2688.73 1658.34,2691.48
             1652.29,2694.24 1646.51,2697.79 1641.48,2701.43
             1636.45,2705.06 1632.15,2708.76 1625.89,2709.69
             1619.62,2710.60 1611.38,2708.73 1605.31,2709.21
             1599.25,2709.68 1595.36,2712.48 1592.47,2715.69
             1589.56,2718.89 1587.65,2722.49 1586.71,2728.15
             1585.76,2733.80 1585.77,2741.50 1591.67,2752.75
             1597.57,2763.99 1609.36,2778.77 1621.14,2793.56
             1621.14,2793.56 1621.14,2793.56 1621.14,2793.56 Z
           M 1835.19,2686.80
           C 1832.59,2674.50 1829.98,2662.23 1825.37,2654.82
             1820.72,2647.35 1814.06,2644.82 1806.81,2642.96
             1799.56,2641.11 1791.74,2639.94 1785.17,2640.13
             1778.60,2640.32 1773.28,2641.96 1770.69,2644.43
             1768.11,2646.90 1768.25,2650.22 1764.63,2653.30
             1761.03,2656.40 1753.66,2659.23 1746.18,2659.82
             1738.70,2660.40 1731.10,2658.76 1724.61,2660.15
             1718.11,2661.53 1712.72,2665.95 1708.31,2670.66
             1703.90,2675.37 1700.46,2680.38 1701.72,2685.58
             1702.98,2690.79 1708.93,2696.19 1716.88,2704.79
             1724.59,2713.13 1734.23,2724.58 1743.88,2736.02
             1754.47,2728.35 1765.45,2720.44 1778.87,2713.22
             1797.12,2703.39 1819.05,2695.20 1835.19,2686.80
             1835.19,2686.80 1835.19,2686.80 1835.19,2686.80 Z
           M 1272.88,2734.88
           C 1259.25,2741.00 1205.49,2763.03 1194.30,2768.04
             1186.85,2771.37 1193.43,2767.51 1187.00,2770.00
             1186.68,2777.26 1192.67,2780.67 1197.67,2787.33
             1203.67,2794.33 1209.91,2799.11 1211.00,2802.00
             1212.09,2804.89 1216.67,2807.33 1220.67,2815.33
             1232.00,2827.67 1229.07,2821.49 1237.67,2830.67
             1246.26,2839.84 1253.01,2844.50 1260.33,2839.00
             1267.66,2833.52 1294.50,2829.05 1297.62,2820.50
             1299.05,2816.60 1315.67,2810.00 1315.67,2810.00
             1315.67,2810.00 1309.80,2796.07 1305.75,2788.12
             1298.37,2773.66 1298.86,2774.00 1286.00,2755.38
             1286.00,2755.38 1272.88,2734.88 1272.88,2734.88 Z
           M 1153.25,2782.50
           C 1149.63,2783.77 1139.55,2783.53 1137.00,2784.25
             1149.40,2804.19 1157.33,2833.82 1165.75,2848.50
             1174.19,2863.20 1173.46,2871.01 1178.25,2875.25
             1183.04,2879.49 1182.80,2875.04 1188.00,2872.75
             1193.75,2868.25 1192.25,2870.00 1196.25,2867.75
             1202.00,2864.50 1233.75,2852.75 1228.00,2848.00
             1223.00,2840.50 1218.71,2834.83 1218.33,2833.33
             1217.93,2831.84 1211.33,2816.67 1204.00,2805.33
             1190.00,2788.67 1193.33,2788.33 1180.67,2773.00
             1180.67,2773.00 1153.25,2782.50 1153.25,2782.50 Z
           M 1596.31,1859.95
           C 1598.12,1860.40 1597.04,1869.13 1597.13,1879.17
             1597.22,1889.21 1598.50,1900.54 1600.24,1909.77
             1601.98,1918.99 1604.18,1926.11 1608.00,1934.34
             1611.79,1942.58 1617.25,1951.92 1627.82,1958.57
             1638.40,1965.22 1654.12,1969.17 1664.31,1975.63
             1674.49,1982.08 1679.13,1991.03 1683.76,1996.93
             1688.40,2002.83 1693.01,2005.68 1697.21,2011.47
             1701.42,2017.26 1705.22,2026.00 1707.27,2033.66
             1709.30,2041.33 1709.58,2047.95 1708.65,2056.48
             1707.72,2065.01 1705.58,2075.48 1704.32,2089.98
             1703.06,2104.48 1702.69,2123.00 1705.19,2142.06
             1707.69,2161.13 1713.06,2180.73 1724.63,2192.98
             1736.20,2205.23 1753.97,2210.15 1770.16,2211.77
             1786.36,2213.39 1800.99,2211.74 1816.67,2208.16
             1832.35,2204.59 1849.08,2199.14 1868.10,2189.64
             1887.12,2180.13 1908.41,2166.58 1928.47,2151.91
             1948.53,2137.24 1967.35,2121.45 1983.16,2110.18
             1998.97,2098.92 2011.77,2092.18 2039.87,2082.77
             2067.97,2073.35 2111.38,2061.24 2145.11,2053.50
             2178.85,2045.75 2202.90,2042.35 2228.03,2040.02
             2253.17,2037.70 2279.37,2036.46 2299.37,2035.38
             2319.38,2034.31 2333.17,2033.40 2343.90,2035.12
             2354.62,2036.80 2362.25,2041.06 2360.96,2042.96
             2359.67,2044.86 2349.46,2044.40 2335.39,2044.36
             2321.32,2044.35 2303.41,2044.70 2282.43,2047.08
             2261.45,2049.46 2237.43,2053.84 2214.87,2057.65
             2192.31,2061.47 2176.34,2063.94 2146.46,2070.06
             2116.58,2076.19 2096.12,2081.18 2082.61,2084.49
             2069.11,2087.79 2069.14,2087.79 2061.13,2090.38
             2061.13,2090.38 2061.11,2090.37 2061.11,2090.37
             2053.09,2092.96 2037.08,2098.17 2026.32,2101.96
             2015.57,2105.76 2010.08,2108.16 2002.14,2112.42
             1994.20,2116.69 1983.79,2122.83 1972.18,2131.43
             1960.56,2140.03 1947.73,2151.09 1935.49,2160.61
             1923.25,2170.13 1911.60,2178.09 1900.29,2185.50
             1888.98,2192.90 1877.99,2199.74 1864.29,2205.72
             1850.59,2211.69 1834.17,2216.78 1814.99,2221.46
             1795.80,2226.13 1773.85,2230.37 1755.23,2228.29
             1736.62,2226.20 1721.34,2217.78 1709.16,2203.78
             1696.98,2189.79 1687.92,2170.22 1683.80,2152.16
             1679.69,2134.11 1680.51,2117.57 1681.47,2100.18
             1682.42,2082.78 1683.43,2065.93 1680.27,2049.01
             1677.11,2032.09 1670.68,2019.89 1665.21,2010.00
             1659.73,2000.11 1655.74,1993.53 1651.71,1988.86
             1647.67,1984.19 1643.60,1981.43 1633.95,1977.93
             1624.29,1974.44 1609.06,1970.20 1599.13,1957.00
             1589.20,1943.79 1584.58,1921.60 1583.12,1906.48
             1581.66,1891.35 1583.36,1883.31 1586.58,1875.34
             1589.79,1867.38 1594.50,1859.50 1596.31,1859.94
             1596.31,1859.94 1596.31,1859.95 1596.31,1859.95 Z
           M 2889.98,1937.57
           C 2889.98,1937.57 2889.98,1937.59 2889.98,1937.59
             2889.98,1937.59 2889.95,1937.59 2889.95,1937.59
             2891.48,1938.17 2885.26,1941.20 2875.12,1944.70
             2864.94,1948.23 2850.87,1952.24 2838.12,1955.45
             2825.37,1958.67 2813.97,1961.10 2802.32,1963.33
             2790.66,1965.55 2778.77,1967.55 2761.11,1969.49
             2743.44,1971.41 2720.00,1973.31 2688.24,1975.75
             2656.48,1978.20 2616.38,1981.22 2589.75,1984.75
             2563.12,1988.27 2549.96,1992.29 2537.70,1996.51
             2525.45,2000.73 2514.09,2005.16 2503.38,2011.51
             2492.67,2017.87 2482.61,2026.18 2474.66,2034.28
             2466.70,2042.39 2460.85,2050.30 2456.40,2055.99
             2451.94,2061.68 2448.88,2065.13 2444.58,2069.25
             2440.28,2073.36 2434.72,2078.15 2428.87,2081.82
             2423.01,2085.50 2416.84,2088.09 2412.41,2089.09
             2407.97,2090.07 2405.29,2089.49 2403.95,2089.21
             2402.61,2088.89 2402.60,2088.89 2406.71,2085.78
             2406.71,2085.78 2406.71,2085.75 2406.71,2085.75
             2410.83,2082.60 2419.05,2076.32 2427.15,2067.96
             2435.25,2059.61 2443.21,2049.20 2451.29,2039.73
             2459.36,2030.26 2467.54,2021.74 2476.44,2014.54
             2485.34,2007.35 2494.98,2001.48 2507.01,1996.27
             2519.05,1991.06 2533.50,1986.51 2545.91,1983.23
             2558.32,1979.94 2568.68,1977.90 2580.25,1976.20
             2591.82,1974.50 2604.61,1973.13 2618.76,1971.77
             2632.91,1970.40 2648.42,1969.03 2661.04,1967.99
             2673.66,1966.96 2683.38,1966.23 2696.94,1965.25
             2710.50,1964.29 2727.91,1963.04 2745.84,1961.31
             2763.78,1959.56 2782.25,1957.29 2798.82,1954.84
             2815.39,1952.39 2830.04,1949.76 2841.48,1947.40
             2852.92,1945.04 2861.14,1942.94 2870.01,1940.95
             2878.86,1938.97 2888.32,1937.05 2889.95,1937.59
             2889.94,1937.58 2889.98,1937.57 2889.98,1937.57
             2889.98,1937.57 2889.98,1937.57 2889.98,1937.57 Z
           M 1375.26,1990.42
           C 1397.92,1990.81 1419.81,1996.48 1442.99,2002.32
             1466.17,2008.15 1487.82,2010.80 1506.93,2022.37
             1519.85,2030.19 1529.67,2042.51 1538.98,2054.40
             1546.96,2064.60 1555.09,2075.33 1559.05,2087.66
             1564.18,2103.66 1563.15,2121.10 1562.96,2137.90
             1562.79,2153.00 1560.14,2167.99 1558.42,2182.99
             1556.91,2196.12 1555.97,2209.36 1553.34,2222.30
             1550.76,2235.00 1547.73,2247.73 1542.89,2259.75
             1538.35,2271.00 1533.95,2282.98 1525.61,2291.79
             1516.89,2301.01 1505.31,2304.77 1493.15,2311.67
             1480.99,2318.56 1466.21,2323.41 1450.53,2326.51
             1434.85,2329.61 1418.25,2330.93 1405.14,2328.87
             1392.02,2326.81 1373.54,2329.43 1359.50,2319.41
             1345.45,2309.39 1316.00,2302.92 1297.78,2284.63
             1279.57,2266.35 1271.86,2255.38 1260.73,2238.03
             1249.60,2220.67 1247.38,2209.93 1240.46,2196.00
             1233.48,2181.96 1225.08,2168.60 1219.02,2154.14
             1215.48,2145.71 1213.13,2136.81 1210.37,2128.09
             1208.00,2120.66 1204.81,2113.41 1203.59,2105.71
             1202.08,2096.13 1202.33,2086.29 1203.04,2076.62
             1203.70,2067.72 1204.27,2058.54 1207.49,2050.22
             1210.92,2041.34 1215.71,2032.38 1222.95,2026.19
             1232.16,2018.31 1241.26,2019.07 1256.19,2011.48
             1271.14,2003.87 1287.71,2005.88 1308.45,2000.40
             1329.19,1994.92 1352.60,1990.03 1375.26,1990.42
             1375.26,1990.42 1375.26,1990.42 1375.26,1990.42 Z
           M 2588.37,2004.11
           C 2592.85,2004.31 2598.32,2005.03 2604.76,2006.56
             2611.20,2008.11 2618.61,2010.47 2625.74,2013.63
             2632.87,2016.78 2639.73,2020.72 2646.81,2025.85
             2653.89,2030.99 2661.18,2037.31 2666.53,2043.39
             2671.88,2049.47 2675.31,2055.30 2679.25,2061.25
             2683.15,2067.21 2687.60,2073.29 2689.80,2080.82
             2691.98,2088.36 2691.90,2097.35 2690.42,2105.87
             2688.93,2114.40 2686.04,2122.46 2682.21,2130.49
             2678.38,2138.53 2673.63,2146.54 2667.13,2153.34
             2660.63,2160.15 2652.41,2165.73 2642.63,2170.88
             2632.85,2176.03 2621.50,2180.75 2611.06,2183.33
             2600.61,2185.91 2591.06,2186.33 2580.55,2185.88
             2570.03,2185.42 2558.56,2184.06 2548.57,2181.68
             2538.59,2179.30 2530.10,2175.89 2521.77,2171.78
             2513.46,2167.68 2505.31,2162.88 2498.91,2158.24
             2492.50,2153.61 2487.82,2149.14 2483.81,2143.70
             2479.80,2138.26 2476.46,2131.84 2473.44,2126.31
             2470.48,2120.76 2467.85,2116.11 2465.63,2111.39
             2463.41,2106.67 2461.72,2101.86 2460.51,2097.81
             2459.37,2093.75 2458.82,2090.39 2459.01,2086.27
             2459.20,2082.15 2460.15,2077.24 2461.80,2074.01
             2463.45,2070.79 2465.81,2069.21 2467.56,2070.84
             2469.31,2072.49 2470.46,2077.35 2471.36,2081.84
             2472.24,2086.33 2472.84,2090.46 2474.49,2094.75
             2476.10,2099.04 2478.70,2103.51 2483.56,2112.07
             2488.43,2120.62 2495.56,2133.25 2504.48,2142.63
             2513.40,2152.02 2524.10,2158.15 2533.69,2161.76
             2543.28,2165.36 2551.76,2166.46 2560.94,2167.07
             2570.11,2167.69 2579.97,2167.81 2588.65,2167.05
             2597.32,2166.28 2604.82,2164.62 2612.62,2161.87
             2620.42,2159.13 2628.54,2155.31 2635.69,2150.35
             2642.84,2145.38 2649.01,2139.28 2653.70,2131.17
             2658.38,2123.07 2661.58,2112.95 2662.75,2103.39
             2663.93,2093.83 2663.10,2084.82 2659.92,2074.64
             2656.75,2064.46 2651.26,2053.10 2643.54,2043.68
             2635.83,2034.25 2625.90,2026.76 2616.06,2021.56
             2606.23,2016.36 2596.48,2013.43 2591.59,2011.98
             2591.59,2011.98 2591.58,2011.98 2591.58,2011.98
             2586.72,2010.53 2586.70,2010.52 2585.07,2009.55
             2583.44,2008.57 2580.18,2006.63 2580.28,2005.47
             2580.37,2004.27 2583.88,2003.92 2588.37,2004.12
             2588.37,2004.12 2588.37,2004.11 2588.37,2004.11 Z
           M 1849.12,2538.87
           C 1849.12,2538.87 1751.20,2568.52 1751.20,2568.52
             1749.83,2574.41 1748.46,2580.31 1747.77,2583.26
             1747.08,2586.21 1747.08,2586.21 1747.34,2589.80
             1747.60,2593.40 1748.11,2600.58 1749.27,2606.76
             1750.44,2612.95 1752.25,2618.16 1755.05,2623.15
             1757.84,2628.15 1761.64,2632.94 1766.83,2634.53
             1772.03,2636.12 1778.64,2634.50 1783.61,2633.08
             1788.59,2631.68 1791.93,2630.43 1796.49,2628.06
             1801.05,2625.69 1806.84,2622.14 1810.37,2619.87
             1813.91,2617.61 1815.20,2616.61 1819.30,2616.15
             1823.39,2615.70 1830.32,2615.75 1837.72,2615.50
             1845.13,2615.24 1853.02,2614.60 1859.86,2613.52
             1866.69,2612.42 1872.47,2610.87 1876.39,2607.99
             1880.30,2605.11 1882.36,2600.92 1883.01,2597.45
             1883.66,2593.98 1882.91,2591.22 1882.58,2588.45
             1882.26,2585.68 1882.33,2582.88 1882.06,2579.29
             1881.80,2575.70 1881.21,2571.33 1879.32,2566.95
             1877.43,2562.57 1874.25,2558.19 1869.00,2553.51
             1863.75,2548.82 1856.44,2543.84 1849.12,2538.86
             1849.12,2538.86 1849.12,2538.87 1849.12,2538.87 Z
           M 1714.97,2579.02
           C 1714.97,2579.02 1619.10,2606.64 1619.10,2606.64
             1620.12,2614.88 1621.14,2623.14 1621.64,2627.26
             1622.15,2631.39 1622.16,2631.38 1622.49,2635.14
             1622.83,2638.91 1623.48,2646.44 1625.14,2653.76
             1626.80,2661.09 1629.45,2668.22 1634.41,2673.25
             1639.37,2678.28 1646.64,2681.21 1653.82,2681.90
             1660.99,2682.59 1668.06,2681.04 1674.26,2677.47
             1680.45,2673.89 1685.78,2668.30 1690.83,2664.57
             1695.89,2660.85 1700.69,2659.01 1706.38,2658.76
             1712.08,2658.50 1718.67,2659.87 1724.06,2660.41
             1729.45,2660.95 1733.62,2660.67 1737.12,2658.31
             1740.62,2655.96 1743.45,2651.54 1743.21,2645.05
             1742.98,2638.56 1739.68,2630.01 1736.89,2622.03
             1734.09,2614.06 1731.80,2606.67 1728.23,2599.60
             1724.63,2592.53 1719.81,2585.78 1714.97,2579.03
             1714.97,2579.03 1714.97,2579.02 1714.97,2579.02 Z
           M 1347.86,2706.70
           C 1347.86,2706.70 1306.07,2722.69 1306.07,2722.69
             1309.89,2734.88 1313.72,2747.06 1319.42,2758.94
             1325.10,2770.82 1332.68,2782.39 1341.17,2790.12
             1349.66,2797.84 1359.05,2801.72 1366.60,2802.79
             1374.15,2803.87 1379.86,2802.10 1385.53,2798.31
             1391.19,2794.51 1396.82,2788.63 1400.71,2783.19
             1404.59,2777.74 1406.72,2772.73 1405.22,2766.75
             1403.71,2760.76 1398.57,2753.79 1393.27,2747.48
             1387.96,2741.16 1382.51,2735.49 1377.77,2730.99
             1373.03,2726.48 1369.02,2723.15 1364.16,2719.29
             1359.29,2715.44 1353.58,2711.07 1347.86,2706.70
             1347.86,2706.70 1347.86,2706.70 1347.86,2706.70 Z
           M 1244.77,2847.70
           C 1241.39,2847.83 1238.12,2851.22 1237.28,2854.75
             1236.43,2858.27 1238.03,2861.95 1240.60,2865.92
             1243.18,2869.90 1246.74,2874.18 1250.67,2878.33
             1254.62,2882.48 1258.93,2886.51 1267.24,2896.31
             1275.54,2906.10 1287.83,2921.66 1300.12,2937.21
             1300.12,2937.21 1360.41,2916.53 1360.41,2916.53
             1360.85,2916.33 1362.06,2914.55 1362.49,2914.34
             1354.40,2904.51 1345.60,2896.21 1336.64,2886.86
             1327.65,2877.48 1317.80,2868.59 1311.36,2862.62
             1304.92,2856.66 1301.89,2853.61 1299.04,2852.50
             1296.20,2851.38 1293.55,2852.18 1290.24,2853.48
             1286.93,2854.77 1282.98,2856.57 1279.19,2857.25
             1275.39,2857.91 1271.73,2857.44 1267.75,2856.66
             1263.77,2855.89 1259.46,2854.83 1255.55,2852.75
             1251.64,2850.66 1248.14,2847.57 1244.77,2847.70
             1244.77,2847.70 1244.77,2847.70 1244.77,2847.70 Z" />
  <path id="Hat Main Path"
        fill="none" stroke="black" stroke-width="1"
        d="M 1024.37,970.22
           C 1024.37,970.22 3045.77,495.59 3045.77,495.59
             3045.77,495.59 3053.82,528.82 3053.82,528.82
             3053.82,528.82 3061.34,561.63 3061.34,561.63
             3061.34,561.63 3066.57,589.76 3066.57,589.76
             3066.57,589.76 3071.13,635.83 3071.13,635.83
             3071.13,635.83 3074.65,675.44 3074.65,675.44
             3074.65,675.44 3081.59,714.76 3081.59,714.76
             3081.59,714.76 1040.47,1186.83 1040.47,1186.83
             1040.47,1186.83 1041.18,1139.80 1041.18,1139.80
             1041.18,1139.80 1039.85,1096.30 1039.85,1096.30
             1039.85,1096.30 1039.11,1061.66 1039.11,1061.66
             1039.11,1061.66 1035.65,1030.45 1035.65,1030.45
             1035.65,1030.45 1024.37,970.22 1024.37,970.22 Z
           M 2688.23,5.51
           C 2641.59,1.79 2596.92,26.89 2552.59,42.02
             2321.65,120.82 2136.02,272.18 1876.47,323.65
             1616.92,375.12 1341.54,181.26 1132.94,316.80
             1046.91,372.69 1030.26,499.28 1007.68,600.23
             987.80,689.16 994.79,782.73 1001.03,873.69
             1004.61,926.05 1017.07,974.44 1027.80,1026.50
             1033.90,1056.08 1032.55,1085.81 1034.48,1115.33
             1033.56,1154.04 1040.25,1197.43 1034.68,1237.27
             1029.19,1277.12 1017.61,1314.56 992.36,1343.64
             943.68,1399.71 853.91,1395.08 783.84,1418.30
             670.99,1455.67 555.44,1484.35 442.77,1522.27
             360.05,1550.12 270.21,1564.91 197.05,1612.91
             120.51,1663.14 -10.33,1721.04 6.54,1811.81
             20.36,1886.13 137.28,1890.44 210.35,1906.08
             310.49,1927.51 415.33,1910.22 517.40,1902.36
             645.16,1892.55 771.29,1867.14 898.06,1848.25
             1074.82,1821.91 1251.92,1797.43 1428.56,1770.12
             1543.31,1752.37 1657.86,1733.44 1772.00,1712.03
             1972.80,1674.36 2172.67,1631.76 2372.02,1586.67
             2525.92,1551.87 2679.50,1515.57 2832.95,1478.91
             3051.88,1426.60 3270.83,1373.56 3486.85,1310.02
             3637.18,1265.79 3787.25,1219.50 3933.27,1162.39
             4025.69,1126.24 4145.95,1120.17 4204.49,1039.22
             4235.99,995.67 4253.62,922.40 4222.83,878.33
             4176.66,812.23 4068.43,833.47 3988.99,824.26
             3840.39,807.03 3689.76,828.36 3540.30,822.68
             3402.08,817.40 3232.89,881.98 3126.43,792.58
             3062.96,739.28 3085.46,630.80 3063.35,550.36
             3039.28,462.82 3025.42,371.17 2987.62,288.76
             2952.56,212.35 2913.41,132.36 2849.85,77.98
             2804.84,39.47 2746.97,10.18 2688.23,5.50
             2688.23,5.50 2688.23,5.51 2688.23,5.51 Z" />
  <path id="Coat Collar Path"
        fill="none" stroke="black" stroke-width="1"
        d="M 2957.00,3061.00
           C 2943.76,3055.34 3026.40,3055.47 3117.00,2949.00
             3164.62,2893.03 3262.01,2866.82 3325.00,2829.00
             3387.62,2791.40 3478.96,2753.70 3549.00,2733.00
             3646.60,2704.16 3681.34,2659.22 3776.23,2586.59
             3811.70,2559.43 3679.61,2529.46 3663.16,2441.27
             3645.02,2344.04 3641.06,2345.83 3635.99,2297.23
             3625.65,2198.23 3633.48,2164.43 3629.53,1998.67
             3625.83,1843.27 3659.05,1705.23 3657.20,1674.62
             3657.20,1674.62 3657.20,1674.62 3657.20,1674.62
             3657.07,1672.58 3652.93,1675.39 3650.48,1676.81
             3611.29,1699.47 3222.80,2071.87 3027.37,2240.12
             2831.94,2408.37 2674.38,2521.02 2491.81,2626.58
             2309.25,2732.14 2100.14,2831.41 1917.71,2899.46
             1735.29,2967.51 1574.73,3006.01 1422.27,3026.97
             1269.82,3047.93 919.29,3069.56 925.58,3086.89
             931.86,3104.22 1393.75,3297.72 1534.24,3420.07
             1600.50,3477.78 1707.13,3506.75 1765.00,3573.00
             1807.59,3621.76 2151.85,3479.73 2333.00,3421.00
             2701.00,3197.00 2839.50,3138.00 2839.50,3138.00
             2839.50,3138.00 2959.48,3062.06 2957.00,3061.00 Z" />
  <path id="Hat Band Path"
        fill="none" stroke="black" stroke-width="1"
        d="M 1031.00,974.00
           C 1031.00,974.00 1083.00,961.88 1083.00,961.88
             1083.00,961.88 1181.00,938.88 1181.00,938.88
             1181.00,938.88 1368.00,895.12 1368.00,895.12
             1368.00,895.12 1480.00,868.65 1480.00,868.65
             1480.00,868.65 1645.00,829.88 1645.00,829.88
             1645.00,829.88 1956.00,756.88 1956.00,756.88
             1956.00,756.88 2569.00,613.12 2569.00,613.12
             2569.00,613.12 2884.00,539.12 2884.00,539.12
             2884.00,539.12 2982.00,516.12 2982.00,516.12
             2982.00,516.12 3042.00,502.00 3042.00,502.00
             3042.00,502.00 3060.58,587.00 3060.58,587.00
             3060.58,587.00 3063.17,611.00 3063.17,611.00
             3063.17,611.00 3069.17,675.00 3069.17,675.00
             3069.17,675.00 3075.00,711.00 3075.00,711.00
             3075.00,711.00 3021.00,723.35 3021.00,723.35
             3021.00,723.35 2913.00,748.35 2913.00,748.35
             2913.00,748.35 2593.00,822.35 2593.00,822.35
             2593.00,822.35 1532.00,1067.65 1532.00,1067.65
             1532.00,1067.65 1199.00,1144.65 1199.00,1144.65
             1199.00,1144.65 1091.00,1169.65 1091.00,1169.65
             1091.00,1169.65 1046.00,1180.00 1046.00,1180.00
             1046.00,1180.00 1046.00,1155.00 1046.00,1155.00
             1046.00,1155.00 1046.97,1142.00 1046.97,1142.00
             1046.97,1142.00 1046.00,1128.00 1046.00,1128.00
             1046.00,1128.00 1046.00,1111.00 1046.00,1111.00
             1046.00,1111.00 1045.00,1095.00 1045.00,1095.00
             1045.00,1095.00 1045.00,1070.00 1045.00,1070.00
             1044.98,1054.05 1039.47,1021.44 1036.39,1005.00
             1036.39,1005.00 1031.00,974.00 1031.00,974.00 Z" />
  <path id="Pupil Path"
        fill="none" stroke="black" stroke-width="1"
        d="M 1381.40,2080.09
           C 1357.28,2080.09 1337.73,2097.10 1337.73,2118.09
             1337.75,2123.67 1339.17,2129.06 1341.78,2133.95
             1345.73,2141.37 1352.55,2145.72 1353.20,2153.13
             1353.83,2160.40 1350.16,2165.49 1345.43,2173.61
             1334.63,2192.15 1327.43,2212.66 1332.14,2220.96
             1336.86,2229.29 1360.13,2226.06 1381.66,2226.24
             1403.36,2226.44 1423.33,2228.40 1428.21,2220.08
             1432.96,2211.98 1421.27,2189.44 1416.08,2174.65
             1413.69,2167.82 1406.72,2161.98 1407.35,2154.77
             1408.00,2147.45 1415.35,2143.15 1419.61,2136.47
             1423.13,2130.95 1425.08,2123.09 1425.10,2116.52
             1425.10,2095.54 1405.53,2080.09 1381.40,2080.09
             1381.40,2080.09 1381.40,2080.09 1381.40,2080.09 Z" />
</svg>
